<?xml version="1.0" standalone="no"?>
<!DOCTYPE svg PUBLIC "-//W3C//DTD SVG 20010904//EN"
 "http://www.w3.org/TR/2001/REC-SVG-20010904/DTD/svg10.dtd">
<svg version="1.0" xmlns="http://www.w3.org/2000/svg"
 width="1280.000000pt" height="458.000000pt" viewBox="0 0 1280.000000 458.000000"
 preserveAspectRatio="xMidYMid meet">

<g transform="translate(0.000000,458.000000) scale(0.100000,-0.100000)"
fill="#000000" stroke="none">
<path d="M696 3958 c-58 -97 -76 -135 -69 -146 13 -22 248 -151 256 -141 35
44 102 137 132 182 36 54 37 59 24 83 -17 34 -117 101 -180 124 -27 9 -52 20
-56 23 -17 17 -34 -2 -107 -125z"/>
<path d="M2108 3504 c-12 -11 -10 -122 2 -129 10 -6 109 -26 145 -28 17 -2 21
7 28 67 5 38 5 72 0 76 -11 12 -166 24 -175 14z"/>
<path d="M258 3340 c-70 -66 -132 -120 -138 -120 -6 0 -10 -44 -10 -115 0 -86
3 -115 13 -115 7 0 68 -56 137 -125 69 -69 129 -125 135 -125 16 0 345 334
345 350 0 8 -51 69 -113 135 -61 67 -135 147 -164 178 -29 31 -58 57 -65 57
-7 0 -70 -54 -140 -120z"/>
<path d="M4318 2368 c-3 -454 -5 -516 -19 -543 -28 -51 -53 -66 -117 -72 -107
-10 -164 40 -185 162 l-11 67 -54 -6 c-30 -4 -88 -9 -128 -13 -86 -7 -84 -3
-58 -130 28 -139 92 -227 202 -281 54 -26 64 -27 207 -27 142 1 153 2 206 27
116 56 191 151 220 279 8 36 13 218 16 552 l4 497 -140 0 -140 0 -3 -512z"/>
<path d="M5267 2873 c-3 -5 -17 -39 -32 -78 -15 -38 -33 -83 -40 -100 -7 -16
-25 -61 -39 -100 -15 -38 -30 -79 -35 -90 -10 -24 -65 -165 -171 -440 -43
-110 -105 -271 -139 -358 -33 -87 -61 -160 -61 -163 0 -2 64 -4 143 -4 l142 0
39 108 c21 59 45 126 53 150 l16 42 273 0 c202 0 274 -3 274 -12 0 -6 13 -45
29 -87 17 -42 40 -104 53 -138 l23 -63 148 0 c81 0 147 2 147 4 0 5 -134 344
-150 381 -5 11 -19 45 -31 75 -12 30 -27 69 -34 85 -7 17 -43 107 -79 200 -37
94 -77 195 -90 225 -14 30 -52 126 -86 213 l-62 157 -143 0 c-79 0 -146 -3
-148 -7z m161 -355 c5 -18 29 -82 52 -143 23 -60 46 -121 50 -135 5 -14 20
-56 34 -94 14 -38 26 -71 26 -72 0 -2 -79 -4 -175 -4 -158 0 -175 2 -175 17 0
9 15 58 34 108 19 49 56 150 82 223 27 72 52 132 56 132 4 0 11 -15 16 -32z"/>
<path d="M5930 2875 c0 -3 17 -32 37 -63 21 -31 42 -65 48 -74 5 -10 69 -110
140 -223 72 -113 137 -217 145 -230 8 -13 39 -62 68 -107 l52 -83 0 -277 0
-277 135 -3 135 -3 0 285 0 285 75 115 c41 63 80 125 87 137 7 12 56 90 108
173 52 82 100 158 105 168 6 9 31 49 56 87 25 39 48 76 53 83 6 9 -27 12 -151
12 l-158 0 -55 -97 c-30 -53 -67 -117 -82 -142 -15 -25 -31 -53 -35 -61 -6
-13 -37 -66 -80 -135 -7 -11 -20 -34 -29 -52 -20 -40 -33 -35 -65 25 -13 26
-65 113 -114 195 -50 81 -96 160 -104 175 -8 15 -17 29 -20 32 -3 3 -12 17
-20 33 l-14 27 -159 0 c-87 0 -158 -2 -158 -5z"/>
<path d="M7520 2865 c0 -8 -7 -29 -15 -47 -8 -18 -39 -98 -70 -178 -31 -80
-60 -154 -64 -165 -5 -11 -17 -40 -26 -65 -10 -25 -23 -58 -30 -75 -7 -16 -38
-97 -69 -180 -31 -82 -61 -159 -66 -170 -4 -11 -24 -60 -43 -110 -19 -49 -56
-142 -81 -206 -25 -64 -46 -119 -46 -122 0 -4 64 -7 143 -7 l142 0 34 93 c18
50 43 118 55 150 l21 57 268 0 267 0 15 -32 c8 -18 33 -86 57 -150 l43 -118
147 0 c82 0 148 1 148 3 0 8 -90 237 -232 587 -27 69 -63 159 -79 200 -17 41
-38 95 -48 120 -27 63 -74 181 -111 275 -17 44 -38 97 -47 118 l-16 37 -149 0
c-123 0 -148 -2 -148 -15z m193 -418 c21 -56 44 -118 52 -137 23 -58 85 -230
85 -235 0 -3 -81 -5 -181 -5 -141 0 -180 3 -176 13 40 102 150 405 162 445 3
12 9 22 13 22 4 0 24 -46 45 -103z"/>
<path d="M8500 2210 l0 -670 125 0 125 0 0 425 c0 234 3 425 8 425 7 0 16 -14
282 -445 95 -154 191 -309 214 -345 l41 -65 138 3 137 3 0 669 0 670 -130 0
-130 0 0 -437 c0 -507 14 -475 -117 -260 -43 71 -86 140 -95 155 -10 15 -22
36 -28 47 -6 11 -28 47 -50 80 -22 33 -43 67 -47 75 -3 8 -18 33 -32 55 -14
22 -28 45 -31 50 -3 6 -36 61 -74 123 l-69 112 -134 0 -133 0 0 -670z"/>
<path d="M9840 2208 l0 -673 140 3 140 3 0 670 0 669 -140 0 -140 0 0 -672z"/>
<path d="M10280 2770 l0 -110 193 -2 192 -3 3 -557 2 -558 140 0 140 0 2 558
3 557 198 3 197 2 0 110 0 110 -535 0 -535 0 0 -110z"/>
<path d="M11748 2837 c-31 -79 -233 -598 -304 -782 -46 -118 -64 -164 -79
-200 -35 -82 -117 -306 -113 -310 2 -2 66 -5 143 -6 110 -1 140 2 143 12 5 15
86 244 97 272 7 16 29 17 275 17 l267 0 18 -42 c9 -24 23 -59 30 -78 8 -19 26
-67 41 -107 l27 -72 148 -3 c82 -2 149 -3 149 -3 0 0 -8 23 -19 50 -41 108
-70 182 -84 215 -9 19 -48 116 -87 215 -39 99 -75 189 -79 200 -5 11 -16 40
-26 65 -10 25 -24 59 -31 75 -8 17 -57 141 -111 278 l-97 247 -145 0 -146 0
-17 -43z m205 -397 c104 -280 127 -343 127 -356 0 -11 -32 -14 -175 -14 -96 0
-175 3 -175 7 0 4 15 48 34 98 19 49 58 154 87 233 29 78 55 139 59 135 4 -4
23 -51 43 -103z"/>
<path d="M2605 2659 c-157 -23 -213 -34 -383 -75 -278 -68 -534 -164 -547
-205 -19 -58 217 -933 270 -1006 13 -17 18 -17 127 11 103 27 564 147 816 212
73 19 102 31 102 42 0 35 -252 1017 -263 1024 -14 9 -42 8 -122 -3z"/>
<path d="M1021 2504 c-211 -102 -571 -325 -571 -352 0 -15 25 -62 33 -62 4 0
7 -4 7 -10 0 -5 15 -33 33 -62 19 -29 47 -78 64 -108 16 -30 50 -86 75 -125
25 -38 58 -95 75 -125 37 -68 102 -170 108 -170 3 0 13 4 23 9 29 15 132 61
221 98 77 32 159 76 171 93 3 3 53 39 113 79 118 81 119 82 91 168 -20 62 -36
100 -86 198 -65 129 -242 415 -256 415 -4 0 -49 -21 -101 -46z"/>
<path d="M3788 1154 c-47 -25 -50 -101 -6 -125 12 -6 49 -19 82 -29 53 -15 61
-20 61 -41 0 -21 -5 -24 -46 -27 -45 -3 -71 10 -81 38 -2 6 -16 8 -35 4 l-32
-6 16 -34 c42 -87 232 -77 249 14 12 61 -22 89 -144 122 -32 8 -42 16 -40 28
2 13 15 18 50 20 39 3 47 0 53 -17 5 -16 15 -21 41 -21 46 0 46 30 1 64 -27
21 -45 26 -88 26 -30 -1 -66 -7 -81 -16z"/>
<path d="M4140 1151 c-5 -11 -34 -76 -64 -145 l-54 -126 34 0 c27 0 36 6 49
30 15 29 19 30 79 30 61 0 64 -1 76 -30 10 -25 18 -30 46 -30 19 0 34 4 34 9
0 9 -20 54 -93 214 -29 63 -33 67 -63 67 -23 0 -37 -6 -44 -19z m66 -113 c14
-42 11 -48 -28 -48 -32 0 -37 20 -16 65 15 33 28 28 44 -17z"/>
<path d="M4330 1145 c0 -23 4 -25 45 -25 l45 0 0 -120 0 -120 35 0 35 0 0 120
0 120 45 0 c41 0 45 2 45 25 l0 25 -125 0 -125 0 0 -25z"/>
<path d="M4627 1163 c-4 -3 -7 -69 -7 -145 l0 -138 35 0 35 0 0 145 0 145 -28
0 c-16 0 -32 -3 -35 -7z"/>
<path d="M4788 1155 c-47 -26 -50 -97 -6 -124 12 -7 49 -21 82 -30 54 -14 61
-19 61 -41 0 -23 -4 -25 -46 -28 -40 -3 -50 1 -67 22 -16 21 -26 25 -50 20
-37 -7 -33 -33 9 -69 37 -31 101 -40 159 -23 54 17 76 48 66 99 -7 41 -38 63
-111 79 -57 13 -76 26 -68 46 3 9 20 14 50 14 36 0 46 -4 50 -20 4 -15 14 -20
39 -20 42 0 46 25 9 60 -33 31 -134 39 -177 15z"/>
<path d="M5050 1025 l0 -145 35 0 35 0 0 60 0 60 70 0 c68 0 70 1 70 25 0 23
-3 24 -67 27 l-68 3 -3 33 -3 32 80 0 c80 0 81 0 81 25 l0 25 -115 0 -115 0 0
-145z"/>
<path d="M5372 1105 c-18 -35 -32 -67 -32 -69 0 -6 -46 -108 -62 -138 -8 -16
-4 -18 29 -18 33 0 40 4 51 30 13 29 16 30 78 30 60 0 64 -1 79 -30 13 -25 22
-30 50 -30 19 0 35 2 35 5 0 2 -8 19 -18 37 -10 18 -28 58 -41 88 -59 141 -72
160 -106 160 -29 0 -34 -5 -63 -65z m84 -60 c20 -49 18 -55 -21 -55 -25 0 -35
4 -35 15 0 18 28 75 36 75 3 0 12 -16 20 -35z"/>
<path d="M5689 1147 c-62 -41 -85 -120 -55 -192 36 -86 189 -110 245 -38 28
35 26 49 -9 62 -23 8 -30 7 -30 -3 0 -23 -36 -46 -73 -46 -70 0 -103 95 -56
161 27 38 88 41 116 7 13 -17 26 -22 50 -20 l33 3 -15 29 c-32 62 -141 81
-206 37z"/>
<path d="M5940 1145 c0 -23 4 -25 45 -25 l45 0 0 -120 0 -120 35 0 34 0 3 118
3 117 48 3 c42 3 47 5 47 28 l0 24 -130 0 -130 0 0 -25z"/>
<path d="M6240 1025 l0 -145 30 0 30 0 0 145 0 145 -30 0 -30 0 0 -145z"/>
<path d="M6425 1151 c-58 -35 -70 -58 -70 -126 0 -71 20 -109 71 -134 36 -18
131 -19 164 -1 107 57 103 212 -7 269 -35 18 -124 14 -158 -8z m146 -57 c30
-33 33 -112 4 -144 -26 -29 -105 -28 -131 1 -29 32 -26 110 5 143 34 36 88 36
122 0z"/>
<path d="M6720 1025 l0 -145 30 0 29 0 3 88 3 87 61 -85 c55 -78 63 -85 97
-88 l37 -3 0 145 0 146 -35 0 -34 0 -3 -89 -3 -90 -60 89 c-55 81 -63 89 -92
90 l-33 0 0 -145z"/>
<path d="M7150 1145 c0 -23 4 -25 45 -25 l45 0 0 -120 0 -120 35 0 35 0 0 120
0 120 50 0 c47 0 50 2 50 25 l0 25 -130 0 -130 0 0 -25z"/>
<path d="M7450 1025 l0 -145 35 0 35 0 0 60 0 60 60 0 60 0 0 -60 0 -60 35 0
35 0 0 145 0 145 -35 0 -35 0 0 -55 0 -55 -60 0 -60 0 0 55 0 55 -35 0 -35 0
0 -145z"/>
<path d="M7780 1025 l0 -145 35 0 35 0 0 61 0 61 27 -7 c16 -4 28 -7 29 -8 2
-8 71 -94 79 -99 5 -4 27 -8 47 -8 l38 0 -36 50 c-20 28 -43 55 -52 61 -12 7
-13 12 -5 15 36 16 63 47 63 75 0 70 -38 89 -171 89 l-89 0 0 -145z m178 86
c8 -4 12 -19 10 -32 -3 -22 -9 -24 -60 -27 l-58 -3 0 36 0 35 48 0 c26 0 53
-4 60 -9z"/>
<path d="M8165 1154 c-51 -26 -70 -61 -70 -131 0 -69 20 -107 71 -133 36 -18
131 -18 164 0 104 55 102 212 -2 266 -35 18 -125 17 -163 -2z m143 -56 c11
-13 24 -35 27 -50 9 -34 -11 -95 -35 -108 -31 -17 -95 -12 -113 8 -21 23 -31
73 -23 106 16 63 101 89 144 44z"/>
<path d="M8453 1154 c-12 -31 3 -212 20 -237 32 -49 157 -58 212 -15 24 19 25
23 25 144 l0 124 -30 0 -30 0 0 -108 c0 -71 -4 -112 -12 -120 -7 -7 -31 -12
-55 -12 -56 0 -63 15 -63 139 l0 101 -30 0 c-19 0 -33 -6 -37 -16z"/>
<path d="M8853 1156 c-41 -23 -63 -49 -74 -87 -36 -120 76 -222 209 -189 80
19 92 32 92 95 l0 55 -75 0 c-68 0 -75 -2 -75 -20 0 -16 7 -20 35 -20 42 0 58
-25 30 -46 -20 -15 -93 -19 -111 -6 -48 33 -57 105 -18 151 21 25 33 31 65 31
26 0 46 -7 59 -20 11 -11 33 -20 51 -20 26 0 30 3 27 22 -5 39 -63 68 -132 67
-34 -1 -71 -7 -83 -13z"/>
<path d="M9140 1025 l0 -145 30 0 c28 0 29 1 32 58 l3 57 63 3 62 3 0 -61 0
-60 35 0 35 0 0 145 0 145 -35 0 -35 0 0 -55 0 -55 -65 0 -65 0 0 55 c0 54 0
55 -30 55 l-30 0 0 -145z"/>
<path d="M9590 1025 l0 -145 125 0 125 0 0 25 c0 25 -1 25 -91 25 l-90 0 3 38
3 37 78 3 c74 3 77 4 77 27 0 24 -2 25 -80 25 l-80 0 0 30 0 30 85 0 c84 0 85
0 85 25 l0 25 -120 0 -120 0 0 -145z"/>
<path d="M9877 1158 c79 -102 93 -128 81 -148 -7 -11 -16 -20 -20 -20 -5 0 -8
-6 -8 -12 -1 -7 -14 -29 -30 -48 -17 -19 -30 -38 -30 -42 0 -4 15 -8 34 -8 33
0 64 25 96 78 9 15 12 14 30 -10 52 -68 54 -70 92 -66 l36 3 -49 67 c-27 37
-49 72 -49 78 0 6 20 36 45 68 25 31 45 60 45 65 0 4 -17 7 -37 7 -33 -1 -41
-6 -63 -40 -13 -22 -29 -40 -36 -40 -6 0 -23 18 -38 40 -24 36 -31 40 -67 40
-32 0 -39 -3 -32 -12z"/>
<path d="M10255 1151 c-47 -28 -65 -63 -65 -126 0 -100 47 -149 146 -149 58 0
96 20 118 63 15 28 15 28 -20 39 -26 8 -34 7 -34 -2 0 -42 -92 -62 -123 -28
-27 29 -23 125 5 152 30 28 81 26 105 -3 14 -17 25 -21 49 -17 28 4 30 8 23
27 -21 58 -141 83 -204 44z"/>
<path d="M10520 1025 l0 -145 125 0 125 0 0 25 c0 25 -1 25 -91 25 l-90 0 3
38 3 37 78 3 c74 3 77 4 77 27 0 24 -2 25 -80 25 l-80 0 0 30 0 30 90 0 c89 0
90 0 90 25 l0 25 -125 0 -125 0 0 -145z"/>
<path d="M10830 1026 l0 -146 115 0 115 0 0 25 c0 25 -1 25 -80 25 l-79 0 -3
118 -3 117 -32 3 -33 3 0 -145z"/>
<path d="M11110 1025 l0 -145 110 0 110 0 0 25 c0 25 -1 25 -80 25 l-80 0 0
120 0 120 -30 0 -30 0 0 -145z"/>
<path d="M11380 1025 l0 -145 125 0 125 0 0 25 c0 25 -1 25 -90 25 l-90 0 0
40 0 40 80 0 c79 0 80 0 80 25 0 25 -1 25 -80 25 l-80 0 0 30 0 30 85 0 c84 0
85 0 85 25 l0 25 -120 0 -120 0 0 -145z"/>
<path d="M11680 1025 l0 -145 35 0 34 0 3 85 3 84 59 -84 c54 -78 61 -85 92
-85 l34 0 0 145 0 145 -30 0 -30 0 0 -92 c0 -88 -1 -91 -18 -72 -9 10 -39 52
-65 92 -44 67 -50 72 -82 72 l-35 0 0 -145z"/>
<path d="M12080 1157 c-123 -59 -99 -256 35 -281 19 -4 53 -2 75 4 39 11 90
54 90 77 0 16 -63 29 -68 14 -8 -25 -36 -41 -72 -41 -47 0 -70 30 -70 93 0 57
29 97 71 97 38 0 69 -16 69 -36 0 -11 6 -14 16 -10 9 3 24 6 35 6 36 0 11 49
-39 78 -27 15 -109 15 -142 -1z"/>
<path d="M12340 1025 l0 -145 120 0 120 0 0 25 c0 25 -1 25 -85 25 l-85 0 0
40 0 40 80 0 c79 0 80 0 80 25 0 25 -1 25 -80 25 l-80 0 0 30 0 30 85 0 c84 0
85 0 85 25 l0 25 -120 0 -120 0 0 -145z"/>
</g>
</svg>
